<svg xmlns="http://www.w3.org/2000/svg" xmlns:xlink="http://www.w3.org/1999/xlink" viewBox="0 0 180.58 75.61"><defs><clipPath id="clip-path-logo" transform="translate(0 0)"><rect width="180.58" height="75.61" fill="none"/></clipPath></defs><title>logo</title><g clip-path="url(#clip-path-logo)"><path d="M106.17,6V1.21c-.65,0-1.22,0-1.76.05V6c.52,0,1.09-.06,1.76-.06" transform="translate(0 0)" fill="#bfd0e5" class="change_couleur"/><path d="M99.67,7V2l-.48.13a18.4,18.4,0,0,1-3,.65V7.59A20.9,20.9,0,0,0,99.67,7" transform="translate(0 0)" fill="#bfd0e5" class="change_couleur"/><path d="M88,2.18a25.67,25.67,0,0,0-14,0A17.63,17.63,0,0,1,68.46,3a17.6,17.6,0,0,1-5.58-.78,22.75,22.75,0,0,0-7-1V6a17.57,17.57,0,0,1,5.58.78,22.75,22.75,0,0,0,7,1,22.79,22.79,0,0,0,7-1,20.46,20.46,0,0,1,11.18,0,22.43,22.43,0,0,0,4.79.89V2.86A17.92,17.92,0,0,1,88,2.18" transform="translate(0 0)" fill="#bfd0e5" class="change_couleur"/><path d="M88,10.92a25.67,25.67,0,0,0-14,0,17.6,17.6,0,0,1-5.59.78,17.57,17.57,0,0,1-5.58-.78,22.75,22.75,0,0,0-7-1v4.74a17.57,17.57,0,0,1,5.58.78,22.75,22.75,0,0,0,7,1,22.79,22.79,0,0,0,7-1,20.46,20.46,0,0,1,11.18,0,22.43,22.43,0,0,0,4.79.89V11.6A17.92,17.92,0,0,1,88,10.92" transform="translate(0 0)" fill="#bfd0e5" class="change_couleur"/><path d="M106.17,14.69V10c-.65,0-1.22,0-1.76.05v4.75c.52,0,1.09-.06,1.76-.06" transform="translate(0 0)" fill="#bfd0e5" class="change_couleur"/><path d="M96.15,11.56v4.76a20.9,20.9,0,0,0,3.52-.61V10.79l-.48.13a18.5,18.5,0,0,1-3,.65" transform="translate(0 0)" fill="#bfd0e5" class="change_couleur"/><path d="M88,19.66a25.67,25.67,0,0,0-14,0,17.6,17.6,0,0,1-5.59.78,17.57,17.57,0,0,1-5.58-.78,22.75,22.75,0,0,0-7-1v4.74a17.6,17.6,0,0,1,5.58.78,22.75,22.75,0,0,0,7,1,22.79,22.79,0,0,0,7-1,20.46,20.46,0,0,1,11.18,0,22.43,22.43,0,0,0,4.79.89V20.34A17.92,17.92,0,0,1,88,19.66" transform="translate(0 0)" fill="#bfd0e5" class="change_couleur"/><path d="M96.15,20.3v4.76a20.8,20.8,0,0,0,3.52-.61V19.53l-.48.13a18.5,18.5,0,0,1-3,.65" transform="translate(0 0)" fill="#bfd0e5" class="change_couleur"/><path d="M106.17,23.43V18.69c-.65,0-1.22,0-1.76.05v4.75c.52,0,1.09-.06,1.76-.06" transform="translate(0 0)" fill="#bfd0e5" class="change_couleur"/><path d="M88,28.4a25.67,25.67,0,0,0-14,0,17.6,17.6,0,0,1-5.59.78,17.57,17.57,0,0,1-5.58-.78,22.75,22.75,0,0,0-7-1v4.74a17.57,17.57,0,0,1,5.58.78,22.75,22.75,0,0,0,7,1,22.79,22.79,0,0,0,7-1,20.46,20.46,0,0,1,11.18,0,22.43,22.43,0,0,0,4.79.89V29.08A17.92,17.92,0,0,1,88,28.4" transform="translate(0 0)" fill="#bfd0e5" class="change_couleur"/><path d="M99.19,28.4a18.3,18.3,0,0,1-3,.65v4.76a20.92,20.92,0,0,0,3.52-.61V28.27l-.48.13" transform="translate(0 0)" fill="#bfd0e5" class="change_couleur"/><path d="M106.17,32.17V27.43c-.65,0-1.22,0-1.76.05v4.75c.52,0,1.09-.06,1.76-.06" transform="translate(0 0)" fill="#bfd0e5" class="change_couleur"/><path d="M91.41,33.84v1.29h4.74V33.81c-.75.07-1.58.11-2.55.11-.81,0-1.53,0-2.19-.08" transform="translate(0 0)" fill="#f85b81"/><path d="M96.15,29v-4c-.75.07-1.58.11-2.55.11-.81,0-1.53,0-2.19-.08v4c.63.06,1.33.1,2.19.1A22,22,0,0,0,96.15,29" transform="translate(0 0)" fill="#f85b81"/><path d="M96.15,20.3v-4c-.75.07-1.58.11-2.55.11-.81,0-1.53,0-2.19-.08v4c.63.06,1.33.1,2.19.1a22,22,0,0,0,2.55-.13" transform="translate(0 0)" fill="#f85b81"/><path d="M96.15,11.56v-4c-.75.07-1.58.11-2.55.11-.81,0-1.53,0-2.19-.08v4c.63.06,1.33.1,2.19.1a22,22,0,0,0,2.55-.13" transform="translate(0 0)" fill="#f85b81"/><path d="M96.15,2.82V0H91.41V2.86c.63.06,1.33.1,2.19.1a22,22,0,0,0,2.55-.13" transform="translate(0 0)" fill="#f85b81"/><path d="M96.15,7.59V2.82A22,22,0,0,1,93.59,3c-.86,0-1.56,0-2.19-.1V7.62c.65,0,1.37.08,2.19.08,1,0,1.81,0,2.55-.11" transform="translate(0 0)" fill="#b94877"/><path d="M96.15,16.33V11.56a22,22,0,0,1-2.55.13c-.86,0-1.56,0-2.19-.1v4.76c.65,0,1.37.08,2.19.08,1,0,1.81,0,2.55-.11" transform="translate(0 0)" fill="#b94877"/><path d="M96.15,25.07V20.3a22,22,0,0,1-2.55.13c-.86,0-1.56,0-2.19-.1V25.1c.65,0,1.37.08,2.19.08,1,0,1.81,0,2.55-.11" transform="translate(0 0)" fill="#b94877"/><path d="M93.59,29.17c-.86,0-1.56,0-2.19-.1v4.76c.65,0,1.37.08,2.19.08,1,0,1.81,0,2.55-.11V29a22,22,0,0,1-2.55.13" transform="translate(0 0)" fill="#b94877"/><path d="M99.67,15.71v3.81a21.5,21.5,0,0,1,4.74-.78v-4a17.31,17.31,0,0,0-3.84.72l-.9.24" transform="translate(0 0)" fill="#f85b81"/><path d="M99.67,33.19v1.94h4.74v-2.9a17.31,17.31,0,0,0-3.84.72l-.9.24" transform="translate(0 0)" fill="#f85b81"/><path d="M100.57,6.73,99.67,7v3.81a21.62,21.62,0,0,1,4.74-.78V6a17.36,17.36,0,0,0-3.84.72" transform="translate(0 0)" fill="#f85b81"/><path d="M99.67,24.45v3.81a21.5,21.5,0,0,1,4.74-.78v-4a17.31,17.31,0,0,0-3.84.72l-.9.24" transform="translate(0 0)" fill="#f85b81"/><path d="M104.41,0H99.67V2a21.51,21.51,0,0,1,4.74-.78Z" transform="translate(0 0)" fill="#f85b81"/><path d="M100.57,6.73A17.36,17.36,0,0,1,104.41,6V1.27A21.51,21.51,0,0,0,99.67,2V7l.91-.24" transform="translate(0 0)" fill="#b94877"/><path d="M99.67,15.71l.9-.24a17.31,17.31,0,0,1,3.84-.72V10a21.57,21.57,0,0,0-4.74.78Z" transform="translate(0 0)" fill="#b94877"/><path d="M99.67,24.45l.9-.24a17.31,17.31,0,0,1,3.84-.72V18.74a21.57,21.57,0,0,0-4.74.78Z" transform="translate(0 0)" fill="#b94877"/><path d="M99.67,33.19l.9-.24a17.31,17.31,0,0,1,3.84-.72V27.48a21.57,21.57,0,0,0-4.74.78Z" transform="translate(0 0)" fill="#b94877"/><rect x="107.93" width="4.74" height="35.13" fill="#f85b81"/><rect x="116.18" width="4.74" height="35.13" fill="#f85b81"/><path d="M20.05,43.62,0,75.33H5.69l5.12-8.1a29.22,29.22,0,0,0,3.39.19,24.19,24.19,0,0,0,6.93-.88v8.79H26V45.65a2,2,0,0,0-2-2Zm.67,18.12a19.7,19.7,0,0,1-6.52.95H13.7l7.44-11.77V61.62l-.41.11" transform="translate(0 0)" fill="#f85b81"/><path d="M31.44,75.33V43.62h10a9.09,9.09,0,0,1,6.94,15,9.31,9.31,0,0,1,4,7.55,9.23,9.23,0,0,1-9.17,9.2ZM36.25,57h5.14a4.28,4.28,0,0,0,0-8.55H36.25Zm0,13.54h6.89a4.2,4.2,0,0,0,3.08-1.29,4.26,4.26,0,0,0,1.26-3.1,4.35,4.35,0,0,0-4.34-4.34H36.25Z" transform="translate(0 0)" fill="#f85b81"/><path d="M75.16,75.33h-.84a2,2,0,0,1-1.81-1.1L66.15,62H60.72V73.29a2,2,0,0,1-2,2h-.74a2,2,0,0,1-2-2V43.62h11.7a9.16,9.16,0,0,1,7.6,14.29,9.08,9.08,0,0,1-4,3.32L77,72.35a2,2,0,0,1-1.81,3M67.61,57.15A4.35,4.35,0,0,0,72,52.81a4.26,4.26,0,0,0-1.26-3.1,4.2,4.2,0,0,0-3.08-1.28H60.72v8.73Z" transform="translate(0 0)" fill="#f85b81"/><rect x="81.28" y="43.66" width="4.81" height="31.67" fill="#f85b81"/><path d="M91.41,75.33V43.62h10a9.09,9.09,0,0,1,6.93,15,9.15,9.15,0,0,1,1.29,14,8.78,8.78,0,0,1-6.47,2.7ZM96.22,57h5.14a4.28,4.28,0,0,0,0-8.55H96.22Zm0,13.54h6.89a4.2,4.2,0,0,0,3.08-1.29,4.27,4.27,0,0,0,1.26-3.1,4.35,4.35,0,0,0-4.34-4.34H96.22Z" transform="translate(0 0)" fill="#bfd0e5" class="change_couleur"/><path d="M120.93,43.62v26.9h9.33a2,2,0,0,1,2,2v.74a2,2,0,0,1-2,2H116.12V43.62Z" transform="translate(0 0)" fill="#bfd0e5" class="change_couleur"/><path d="M139.69,72.31a10.87,10.87,0,0,1-3.3-8V43.59h4.83V64.33a6.46,6.46,0,0,0,12.92,0V43.59H159V64.33a11.3,11.3,0,0,1-19.28,8" transform="translate(0 0)" fill="#bfd0e5" class="change_couleur"/><path d="M180.58,45.65v.74a2,2,0,0,1-2,2h-9.33V57h6.74a2,2,0,0,1,2,2v.74a2,2,0,0,1-2,2h-6.74v8.68h9.33a2,2,0,0,1,2,2v.74a2,2,0,0,1-2,2H164.4V43.62h14.14a2,2,0,0,1,2,2" transform="translate(0 0)" fill="#bfd0e5" class="change_couleur"/></g></svg>